{"title":"Gravity Falls S01E09 HDTV x264-W4F[rartv]","uid":12595018,"size":190916702,"categoryP":"video","categoryS":"tv_shows","magnet":"?xt=urn:btih:de4848e9955dd5b4ba537d47c0384c02a6581a1b&amp;dn=Gravity+Falls+S01E09+HDTV+x264-W4F%5Brartv%5D&amp;tr=udp%3A%2F%2Ftracker.leechers-paradise.org%3A6969&amp;tr=udp%3A%2F%2Fzer0day.ch%3A1337&amp;tr=udp%3A%2F%2Fopen.demonii.com%3A1337&amp;tr=udp%3A%2F%2Ftracker.coppersurfer.tk%3A6969&amp;tr=udp%3A%2F%2Fexodus.desync.com%3A6969","seeders":0,"leechers":1,"uploader":"TheRival","files":4,"time":1445215791,"description":"Video\r\nID                                       : 1\r\nFormat                                   : AVC\r\nFormat/Info                              : Advanced Video Codec\r\nFormat profile                           :   \r\nFormat settings, CABAC                   : Yes\r\nFormat settings, ReFrames                : 10 frames\r\nCodec ID                                 : avc1\r\nCodec ID/Info                            : Advanced Video Coding\r\nDuration                                 : 22mn 32s\r\nBit rate                                 : 803 Kbps\r\nMaximum bit rate                         : 3 783 Kbps\r\nWidth                                    : 720 pixels\r\nHeight                                   : 404 pixels\r\nDisplay aspect ratio                     : 16:9\r\nFrame rate mode                          : Constant\r\nFrame rate                               : 23.976 fps\r\nColor space                              : YUV\r\nChroma subsampling                       : 4:2:0\r\nBit depth                                : 8 bits\r\nScan type                                : Progressive\r\nBits/(Pixel*Frame)                       : 0.115\r\nStream size                              : 129 MiB (76%)\r\nWriting library                          : x264 core 148 r2597 e86f3a1\r\nEncoding settings                        : cabac=1 / ref=10 / deblock=1:1:1 / analyse=0x3:0x113 / me=umh / subme=8 / psy=1 / psy_rd=0.40:0.00 / mixed_ref=1 / me_range=16 / chroma_me=1 / trellis=1 / 8x8dct=1 / cqm=0 / deadzone=21,11 / fast_pskip=1 / chroma_qp_offset=-2 / threads=12 / lookahead_threads=3 / sliced_threads=0 / nr=0 / decimate=1 / interlaced=0 / bluray_compat=0 / constrained_intra=0 / bframes=5 / b_pyramid=2 / b_adapt=2 / b_bias=0 / direct=3 / weightb=1 / open_gop=0 / weightp=2 / keyint=250 / keyint_min=25 / scenecut=40 / intra_refresh=0 / rc_lookahead=50 / rc=crf / mbtree=1 / crf=19.0 / qcomp=0.60 / qpmin=0 / qpmax=69 / qpstep=4 / ip_ratio=1.40 / aq=1:0.60\r\nEncoded date                             : UTC 2015-10-18 18:03:27\r\nTagged date                              : UTC 2015-10-18 18:03:31\r\nColor range                              : Limited\r\nMatrix coefficients                      : BT.709\r\n\r\nAudio #1\r\nID                                       : 2\r\nFormat                                   : AAC\r\nFormat/Info                              : Advanced Audio Codec\r\nFormat profile                           : LC\r\nCodec ID                                 : 40\r\nDuration                                 : 22mn 32s\r\nBit rate mode                            : Variable\r\nBit rate                                 : 119 Kbps\r\nMaximum bit rate                         : 158 Kbps\r\nChannel(s)                               : 2 channels\r\nChannel positions                        : Front: L R\r\nSampling rate                            : 48.0 KHz\r\nCompression mode                         : Lossy\r\nStream size                              : 19.1 MiB (11%)\r\nLanguage                                 : English\r\nEncoded date                             : UTC 2015-10-18 18:03:30\r\nTagged date                              : UTC 2015-10-18 18:03:31\r\n\r\nAudio #2\r\nID                                       : 3\r\nFormat                                   : AAC\r\nFormat/Info                              : Advanced Audio Codec\r\nFormat profile                           : LC\r\nCodec ID                                 : 40\r\nDuration                                 : 22mn 32s\r\nBit rate mode                            : Variable\r\nBit rate                                 : 132 Kbps\r\nMaximum bit rate                         : 174 Kbps\r\nChannel(s)                               : 2 channels\r\nChannel positions                        : Front: L R\r\nSampling rate                            : 48.0 KHz\r\nCompression mode                         : Lossy\r\nStream size                              : 21.2 MiB (12%)\r\nLanguage                                 : Spanish\r\nEncoded date                             : UTC 2015-10-18 18:03:30\r\nTagged date                              : UTC 2015-10-18 18:03:31","torrent":{"xt":"urn:btih:de4848e9955dd5b4ba537d47c0384c02a6581a1b","amp;dn":"Gravity+Falls+S01E09+HDTV+x264-W4F%5Brartv%5D","amp;tr":["udp%3A%2F%2Ftracker.leechers-paradise.org%3A6969","udp%3A%2F%2Fzer0day.ch%3A1337","udp%3A%2F%2Fopen.demonii.com%3A1337","udp%3A%2F%2Ftracker.coppersurfer.tk%3A6969","udp%3A%2F%2Fexodus.desync.com%3A6969"],"infoHash":"de4848e9955dd5b4ba537d47c0384c02a6581a1b","infoHashBuffer":{"type":"Buffer","data":[222,72,72,233,149,93,213,180,186,83,125,71,192,56,76,2,166,88,26,27]},"announce":[],"urlList":[]}}